<?xml version="1.0" standalone="no"?>
<!DOCTYPE svg PUBLIC "-//W3C//DTD SVG 20010904//EN"
 "http://www.w3.org/TR/2001/REC-SVG-20010904/DTD/svg10.dtd">
<svg version="1.0" xmlns="http://www.w3.org/2000/svg"
 width="68.000000pt" height="55.000000pt" viewBox="0 0 68.000000 55.000000"
 preserveAspectRatio="xMidYMid meet">

<g transform="translate(0.000000,55.000000) scale(0.100000,-0.100000)"
fill="#000000" stroke="none">
<path d="M77 484 c-12 -12 -8 -352 4 -359 6 -4 13 -4 17 0 4 4 1 10 -5 12 -10
4 -13 47 -13 169 l0 165 230 -3 c150 -2 229 0 227 7 -4 11 -449 20 -460 9z"/>
<path d="M125 427 c-3 -7 -4 -89 -3 -182 l3 -170 233 -3 232 -2 -2 182 -3 183
-228 3 c-180 2 -229 0 -232 -11z m453 -174 l-3 -168 -219 0 -219 0 -2 160 c-1
88 0 163 2 168 2 4 103 7 224 7 l219 0 -2 -167z"/>
<path d="M186 364 c-21 -21 -20 -47 2 -67 27 -24 59 -21 78 8 15 23 15 27 0
50 -19 29 -56 33 -80 9z m64 -9 c6 -8 10 -22 8 -32 -5 -25 -61 -25 -66 0 -4
21 14 47 33 47 7 0 18 -7 25 -15z"/>
<path d="M380 265 c-48 -49 -56 -53 -70 -40 -9 8 -23 15 -31 15 -16 0 -119
-100 -119 -115 0 -5 26 16 58 48 l58 57 29 -30 c30 -32 70 -45 45 -14 -11 13
-5 23 41 70 l53 54 51 -50 c28 -27 55 -50 60 -50 5 0 -15 25 -45 55 -30 30
-59 55 -65 55 -6 0 -35 -25 -65 -55z"/>
</g>
</svg>
