<?xml version="1.0" standalone="no"?>
<!DOCTYPE svg PUBLIC "-//W3C//DTD SVG 20010904//EN"
 "http://www.w3.org/TR/2001/REC-SVG-20010904/DTD/svg10.dtd">
<svg version="1.0" xmlns="http://www.w3.org/2000/svg"
 width="81.000000pt" height="68.000000pt" viewBox="0 0 81.000000 68.000000"
 preserveAspectRatio="xMidYMid meet">

<g transform="translate(0.000000,68.000000) scale(0.100000,-0.100000)"
fill="#000000" stroke="none">
<path d="M205 550 l-49 -50 69 -70 c38 -39 74 -70 79 -70 6 0 -21 31 -59 70
l-69 70 39 40 c21 22 44 40 50 40 6 0 37 -27 70 -60 33 -33 64 -60 69 -60 6 0
-21 32 -59 70 -38 39 -74 70 -80 70 -6 0 -33 -23 -60 -50z"/>
<path d="M394 418 c-150 -151 -186 -193 -208 -242 -23 -52 -25 -62 -12 -74 13
-13 23 -11 79 13 57 24 85 48 246 209 99 100 181 187 181 194 0 21 -62 82 -84
82 -14 0 -79 -58 -202 -182z m252 126 c16 -24 16 -26 -12 -55 l-28 -29 -33 32
c-40 39 -41 50 -7 77 30 24 53 17 80 -25z m-86 -59 c27 -27 31 -38 22 -47 -10
-10 -20 -5 -48 24 -20 20 -33 41 -30 47 11 17 20 14 56 -24z m-59 -21 c11 -13
-4 -32 -107 -135 -65 -65 -125 -119 -132 -119 -7 0 -15 7 -19 16 -4 11 29 51
113 135 65 65 122 119 125 119 4 0 12 -7 20 -16z m-1 -111 c-151 -156 -179
-183 -193 -183 -41 0 -22 30 94 146 109 110 125 122 138 109 14 -13 9 -21 -39
-72z m-236 -170 c26 -25 26 -28 10 -40 -24 -18 -38 -16 -58 6 -14 15 -15 24
-6 40 14 27 22 26 54 -6z m-49 -53 c3 -6 -1 -13 -10 -16 -19 -8 -30 0 -20 15
8 14 22 14 30 1z"/>
<path d="M280 515 c-7 -9 -11 -18 -8 -20 3 -3 11 1 18 10 7 9 11 18 8 20 -3 3
-11 -1 -18 -10z"/>
<path d="M337 473 c-4 -3 -7 -11 -7 -17 0 -6 5 -5 12 2 6 6 9 14 7 17 -3 3 -9
2 -12 -2z"/>
<path d="M595 260 l69 -70 -39 -40 c-21 -22 -44 -40 -50 -40 -6 0 -37 27 -70
60 -33 33 -64 60 -69 60 -6 0 21 -31 59 -70 38 -39 74 -70 80 -70 6 0 33 22
59 49 l49 50 -68 70 c-38 39 -73 71 -79 71 -6 0 21 -31 59 -70z"/>
<path d="M530 265 c-8 -9 -8 -15 -2 -15 12 0 26 19 19 26 -2 2 -10 -2 -17 -11z"/>
<path d="M580 215 c-7 -9 -11 -18 -8 -20 3 -3 11 1 18 10 7 9 11 18 8 20 -3 3
-11 -1 -18 -10z"/>
</g>
</svg>
