<?xml version="1.0" standalone="no"?>
<!DOCTYPE svg PUBLIC "-//W3C//DTD SVG 20010904//EN"
 "http://www.w3.org/TR/2001/REC-SVG-20010904/DTD/svg10.dtd">
<svg version="1.0" xmlns="http://www.w3.org/2000/svg"
 width="70.000000pt" height="71.000000pt" viewBox="0 0 70.000000 71.000000"
 preserveAspectRatio="xMidYMid meet">

<g transform="translate(0.000000,71.000000) scale(0.100000,-0.100000)"
fill="#000000" stroke="none">
<path d="M441 634 c0 -11 3 -14 6 -6 3 7 2 16 -1 19 -3 4 -6 -2 -5 -13z"/>
<path d="M555 589 c-11 -17 1 -21 15 -4 8 9 8 15 2 15 -6 0 -14 -5 -17 -11z"/>
<path d="M345 580 c3 -5 10 -10 16 -10 5 0 9 5 9 10 0 6 -7 10 -16 10 -8 0
-12 -4 -9 -10z"/>
<path d="M425 578 c-27 -16 -43 -38 -51 -71 -4 -18 -19 -36 -40 -49 -19 -11
-34 -24 -34 -29 0 -5 -38 -49 -85 -98 -108 -112 -162 -221 -109 -221 31 0 131
60 174 105 25 26 67 65 95 87 27 22 54 49 60 60 11 23 21 29 74 49 64 24 74
107 19 154 -32 27 -71 32 -103 13z m104 -34 c42 -53 18 -104 -64 -135 l-49
-19 -28 27 c-25 24 -26 28 -13 47 8 11 15 28 15 37 0 9 9 28 21 43 16 20 29
26 59 26 30 0 43 -6 59 -26z m-157 -141 c43 -41 48 -58 17 -50 -15 4 -19 2
-15 -8 10 -28 -16 -27 -45 1 -31 30 -39 60 -14 50 12 -4 14 0 9 19 -9 34 4 31
48 -12z m-131 -127 c-56 -56 -73 -68 -83 -58 -18 18 120 156 140 140 11 -9 0
-25 -57 -82z m96 38 c2 -5 -28 -41 -67 -79 -57 -57 -70 -66 -76 -51 -5 13 10
34 57 82 60 60 78 71 86 48z m-168 -126 c32 -34 5 -54 -30 -22 -17 15 -16 44
2 44 4 0 17 -10 28 -22z m-47 -60 c-6 -6 -15 -9 -18 -5 -4 3 -4 14 0 23 5 13
9 15 18 6 9 -9 9 -15 0 -24z"/>
<path d="M420 477 c0 -13 -5 -28 -12 -35 -16 -16 -8 -15 33 3 19 8 26 14 17
15 -11 0 -18 8 -18 20 0 11 -4 20 -10 20 -5 0 -10 -10 -10 -23z"/>
<path d="M595 470 c3 -5 10 -10 16 -10 5 0 9 5 9 10 0 6 -7 10 -16 10 -8 0
-12 -4 -9 -10z"/>
<path d="M545 380 c3 -5 10 -10 16 -10 5 0 9 5 9 10 0 6 -7 10 -16 10 -8 0
-12 -4 -9 -10z"/>
</g>
</svg>
