<?xml version="1.0" standalone="no"?>
<!DOCTYPE svg PUBLIC "-//W3C//DTD SVG 20010904//EN"
 "http://www.w3.org/TR/2001/REC-SVG-20010904/DTD/svg10.dtd">
<svg version="1.0" xmlns="http://www.w3.org/2000/svg"
 width="118.000000pt" height="113.000000pt" viewBox="0 0 118.000000 113.000000"
 preserveAspectRatio="xMidYMid meet">

<g transform="translate(0.000000,113.000000) scale(0.100000,-0.100000)"
fill="#000000" stroke="none">
<path d="M466 1034 c-241 -58 -404 -297 -369 -541 39 -267 291 -456 555 -415
264 40 451 292 410 554 -43 282 -320 469 -596 402z m299 -77 c99 -47 165 -114
213 -215 35 -74 37 -82 37 -182 0 -100 -2 -108 -37 -182 -48 -102 -114 -168
-216 -216 -74 -35 -82 -37 -182 -37 -100 0 -108 2 -182 37 -375 179 -329 707
72 824 27 8 79 12 132 10 75 -3 98 -8 163 -39z"/>
<path d="M480 878 c-124 -63 -146 -233 -44 -332 l34 -33 -30 -13 c-65 -27
-139 -139 -140 -212 0 -31 4 -38 20 -38 14 0 21 9 26 38 15 82 65 145 144 181
136 62 296 -28 324 -181 5 -29 12 -38 26 -38 16 0 20 7 20 38 -1 73 -75 185
-140 212 -36 15 -36 17 -6 41 37 29 66 98 66 158 0 154 -160 249 -300 179z
m143 -32 c71 -26 109 -78 109 -151 0 -84 -57 -145 -142 -153 -93 -9 -160 48
-168 143 -7 80 28 133 105 161 21 7 43 13 48 13 6 0 27 -6 48 -13z"/>
</g>
</svg>
