<?xml version="1.0" standalone="no"?>
<!DOCTYPE svg PUBLIC "-//W3C//DTD SVG 20010904//EN"
 "http://www.w3.org/TR/2001/REC-SVG-20010904/DTD/svg10.dtd">
<svg version="1.0" xmlns="http://www.w3.org/2000/svg"
 width="542.000000pt" height="463.000000pt" viewBox="0 0 542.000000 463.000000"
 preserveAspectRatio="xMidYMid meet">

<g transform="translate(0.000000,463.000000) scale(0.100000,-0.100000)"
fill="#000000" stroke="none">
<path d="M4787 4335 c-55 -21 -123 -73 -151 -116 -24 -35 -188 -411 -599
-1373 -127 -296 -167 -380 -184 -387 -30 -11 -41 -32 -103 -185 l-53 -131
-116 44 c-213 82 -494 173 -531 173 -23 0 -43 -7 -52 -17 -8 -10 -103 -216
-210 -458 -177 -398 -223 -512 -243 -612 -4 -18 -9 -33 -11 -33 -3 0 -20 11
-38 25 -52 40 -159 83 -233 95 -145 24 -314 -25 -419 -122 -27 -25 -48 -38
-54 -32 -11 11 -55 161 -71 245 -7 35 -13 132 -13 214 0 121 4 170 23 255 58
266 206 520 395 682 39 34 73 65 74 70 2 4 10 8 18 8 23 0 135 41 199 73 189
94 355 271 435 464 60 144 74 213 74 378 0 173 -17 249 -82 388 -57 119 -70
132 -130 131 -65 -2 -203 -51 -298 -105 -43 -24 -114 -79 -159 -121 -213 -201
-314 -449 -302 -737 6 -137 26 -224 77 -338 l30 -66 -72 -68 c-40 -36 -98 -99
-128 -138 -63 -81 -53 -87 -84 57 -57 261 -254 511 -501 635 -125 62 -339 105
-449 89 -60 -9 -78 -31 -103 -122 -14 -49 -18 -102 -18 -220 1 -182 17 -257
90 -405 93 -189 240 -336 430 -429 118 -58 200 -83 308 -93 37 -3 67 -9 67
-12 0 -3 -10 -53 -22 -111 -30 -149 -30 -394 0 -535 12 -54 20 -101 17 -103
-2 -2 -14 3 -27 11 -94 61 -276 79 -403 39 -155 -47 -285 -170 -334 -315 l-18
-52 -79 -11 c-130 -19 -219 -61 -313 -148 -51 -47 -109 -141 -132 -215 -26
-83 -29 -223 -5 -296 9 -27 16 -53 16 -57 0 -5 -40 -8 -89 -8 -74 0 -92 -3
-115 -21 -33 -26 -36 -79 -6 -109 20 -20 33 -20 2519 -20 2413 0 2500 1 2522
18 33 27 30 78 -5 109 l-27 23 -441 0 -440 0 71 77 c135 144 184 232 401 719
110 246 200 457 200 469 0 13 -8 32 -17 43 -21 24 -263 166 -450 264 l-132 69
65 132 c59 117 66 135 60 174 -5 39 10 76 225 540 127 274 306 658 397 853
l166 355 1 95 c0 79 -4 103 -22 140 -30 60 -86 116 -147 148 -63 31 -188 40
-249 17z m201 -162 c48 -35 72 -81 72 -136 0 -54 22 -5 -563 -1264 l-200 -433
-31 21 c-54 36 -150 79 -189 86 -33 5 -38 9 -34 27 3 17 582 1366 681 1591 30
67 48 89 91 117 40 25 133 21 173 -9z m-2268 -283 c85 -193 76 -449 -22 -643
-105 -209 -285 -363 -482 -413 -22 -5 -28 0 -49 43 -50 99 -62 158 -62 313 0
125 3 156 23 220 81 257 257 446 495 530 29 10 56 18 60 16 5 -1 21 -31 37
-66z m-1515 -795 c219 -107 374 -303 430 -545 17 -76 20 -228 4 -300 l-11 -50
-52 0 c-29 0 -88 9 -132 20 -265 67 -477 273 -564 545 -24 77 -39 291 -23 333
9 23 14 20 111 -73 161 -153 299 -350 382 -544 45 -103 71 -124 126 -97 62 29
57 70 -33 250 -85 171 -200 333 -327 460 -54 54 -56 58 -30 52 16 -3 70 -26
119 -51z m2872 -805 c59 -21 132 -68 162 -106 l20 -26 -119 -239 c-74 -146
-120 -250 -120 -269 0 -38 31 -70 70 -70 38 0 57 19 99 102 l35 67 105 -56
c90 -48 380 -210 389 -218 4 -3 -316 -722 -356 -800 -71 -141 -223 -318 -342
-398 l-55 -37 -383 0 c-362 0 -384 1 -377 17 58 151 39 336 -49 468 -87 130
-224 217 -377 237 l-87 11 -13 41 c-21 65 -3 207 43 341 19 53 362 832 371
842 11 10 537 -183 537 -197 0 -5 -38 -93 -86 -197 -160 -354 -200 -520 -191
-798 6 -172 17 -229 47 -245 37 -20 70 -9 162 52 123 82 295 254 377 377 71
107 131 221 131 249 0 35 -38 72 -74 72 -41 0 -63 -23 -109 -115 -71 -142
-201 -300 -328 -400 l-62 -49 6 155 c7 217 35 318 167 614 104 233 183 414
234 538 l29 68 46 -7 c25 -3 69 -14 98 -24z m-2685 -1081 c164 -35 276 -159
297 -329 8 -58 15 -79 31 -92 30 -24 75 -23 101 3 20 20 21 29 16 107 -6 83
-6 85 27 136 76 119 183 179 321 179 104 0 176 -27 249 -94 52 -47 106 -134
106 -168 -1 -9 -25 -28 -58 -43 -31 -15 -66 -34 -77 -42 -18 -14 -25 -12 -74
19 -66 42 -156 73 -236 81 -52 5 -64 3 -87 -16 -21 -16 -28 -30 -28 -56 0 -50
25 -70 101 -77 181 -19 313 -148 340 -332 13 -85 32 -115 75 -115 64 0 87 45
74 142 -11 72 -32 137 -61 187 -19 31 -19 35 -3 52 21 24 108 56 171 65 199
26 396 -140 411 -346 5 -69 -15 -162 -44 -208 l-14 -22 -1281 0 -1280 0 -20
45 c-50 113 -45 227 13 338 39 72 92 121 177 160 58 27 77 31 151 31 84 0 141
-17 207 -59 l21 -14 -28 -54 c-33 -60 -60 -161 -60 -226 0 -32 6 -51 22 -68
48 -51 128 -10 128 65 0 174 153 337 335 357 67 8 100 24 110 55 10 32 -13 77
-45 90 -57 24 -219 -15 -308 -74 l-52 -35 -43 28 c-23 16 -59 36 -80 45 -33
13 -37 19 -31 38 43 141 191 251 346 257 15 1 51 -4 80 -10z"/>
</g>
</svg>
