<?xml version="1.0" standalone="no"?>
<!DOCTYPE svg PUBLIC "-//W3C//DTD SVG 20010904//EN"
 "http://www.w3.org/TR/2001/REC-SVG-20010904/DTD/svg10.dtd">
<svg version="1.0" xmlns="http://www.w3.org/2000/svg"
 width="67.000000pt" height="69.000000pt" viewBox="0 0 67.000000 69.000000"
 preserveAspectRatio="xMidYMid meet">

<g transform="translate(0.000000,69.000000) scale(0.100000,-0.100000)"
fill="#000000" stroke="none">
<path d="M209 435 c-66 -79 -74 -85 -86 -69 -22 30 -13 46 43 74 27 13 33 19
19 20 -11 0 -35 -9 -52 -20 -35 -21 -43 -54 -22 -89 10 -14 8 -24 -11 -49 -17
-23 -21 -38 -16 -63 13 -65 94 -139 154 -141 22 -1 50 16 111 67 44 38 81 72
81 77 0 12 -5 9 -96 -67 -43 -36 -84 -65 -92 -65 -47 0 -142 92 -142 139 0 15
9 40 21 55 16 21 24 24 39 16 30 -16 136 -24 144 -11 5 7 -7 11 -37 11 -59 0
-107 10 -107 22 0 12 79 108 89 108 4 0 13 -15 19 -34 14 -39 115 -136 140
-135 13 0 11 4 -8 17 -54 35 -119 111 -125 146 -4 19 -4 39 0 45 9 16 51 13
86 -5 17 -8 33 -13 36 -11 9 9 -44 38 -80 44 -33 5 -37 2 -108 -82z"/>
<path d="M379 441 c-35 -11 -72 -32 -66 -37 2 -2 23 3 47 11 146 51 243 -24
244 -189 0 -114 -34 -151 -64 -68 -16 47 -27 53 -32 20 -2 -13 -10 -23 -18
-23 -11 0 -16 16 -20 62 -7 81 -20 92 -20 16 0 -45 5 -67 19 -84 16 -19 22
-22 32 -12 17 17 29 16 29 0 0 -8 9 -22 20 -32 20 -18 21 -18 43 3 20 20 22
33 22 115 0 80 -3 98 -25 136 -14 24 -37 53 -52 64 -30 22 -116 32 -159 18z"/>
</g>
</svg>
