<?xml version="1.0" standalone="no"?>
<!DOCTYPE svg PUBLIC "-//W3C//DTD SVG 20010904//EN"
 "http://www.w3.org/TR/2001/REC-SVG-20010904/DTD/svg10.dtd">
<svg version="1.0" xmlns="http://www.w3.org/2000/svg"
 width="77.000000pt" height="62.000000pt" viewBox="0 0 77.000000 62.000000"
 preserveAspectRatio="xMidYMid meet">

<g transform="translate(0.000000,62.000000) scale(0.100000,-0.100000)"
fill="#000000" stroke="none">
<path d="M150 523 c-8 -3 -18 -11 -22 -17 -4 -6 -8 -93 -8 -193 0 -152 3 -184
16 -197 12 -13 38 -16 119 -16 144 0 146 19 3 22 -108 3 -113 4 -116 25 -3 19
2 22 40 25 l43 3 0 175 0 175 -30 2 c-16 1 -37 -1 -45 -4z m68 -175 l3 -158
-41 0 -40 0 0 153 c0 85 3 157 7 161 4 4 21 6 38 4 l30 -3 3 -157z"/>
<path d="M572 517 c-6 -6 -33 -52 -61 -100 -75 -130 -81 -217 -9 -139 35 38
131 210 123 222 -13 20 -42 30 -53 17z m33 -17 c11 -17 -5 -32 -21 -19 -7 6
-11 15 -8 20 7 12 21 11 29 -1z m-20 -40 c3 -5 -13 -42 -35 -80 -34 -59 -44
-69 -56 -59 -12 10 -11 17 8 48 11 20 30 51 40 69 20 33 32 39 43 22z m-95
-159 c0 -6 -4 -13 -10 -16 -5 -3 -10 1 -10 9 0 9 5 16 10 16 6 0 10 -4 10 -9z"/>
<path d="M313 453 c37 -2 97 -2 135 0 37 2 6 3 -68 3 -74 0 -105 -1 -67 -3z"/>
<path d="M648 423 c5 -59 10 -63 11 -10 1 26 -3 47 -7 47 -4 0 -6 -17 -4 -37z"/>
<path d="M507 222 c-70 -70 -127 -133 -127 -140 0 -9 36 -12 140 -12 l140 0 0
140 c0 106 -3 140 -13 140 -7 0 -70 -57 -140 -128z m143 -12 c0 -90 -3 -122
-13 -126 -7 -2 -65 -3 -128 -2 l-114 3 119 123 c66 67 123 122 128 122 4 0 8
-54 8 -120z"/>
<path d="M552 187 c-29 -29 -52 -56 -52 -60 0 -4 25 -7 55 -7 l55 0 0 60 c0
33 -1 60 -3 60 -1 0 -26 -24 -55 -53z m46 -14 c-3 -24 -8 -28 -38 -31 l-35 -4
29 31 c37 38 48 39 44 4z"/>
<path d="M270 275 c-11 -13 -8 -14 17 -9 20 4 33 1 42 -10 18 -21 75 -21 92 1
12 15 12 16 -6 9 -43 -18 -61 -17 -79 3 -22 25 -49 27 -66 6z"/>
</g>
</svg>
