<?xml version="1.0" standalone="no"?>
<!DOCTYPE svg PUBLIC "-//W3C//DTD SVG 20010904//EN"
 "http://www.w3.org/TR/2001/REC-SVG-20010904/DTD/svg10.dtd">
<svg version="1.0" xmlns="http://www.w3.org/2000/svg"
 width="68.000000pt" height="63.000000pt" viewBox="0 0 68.000000 63.000000"
 preserveAspectRatio="xMidYMid meet">

<g transform="translate(0.000000,63.000000) scale(0.100000,-0.100000)"
fill="#000000" stroke="none">
<path d="M360 550 c0 -16 5 -30 10 -30 6 0 10 14 10 30 0 17 -4 30 -10 30 -5
0 -10 -13 -10 -30z"/>
<path d="M210 525 c13 -14 28 -25 33 -25 6 0 0 11 -13 25 -13 14 -28 25 -33
25 -6 0 0 -11 13 -25z"/>
<path d="M510 525 c-13 -14 -19 -25 -13 -25 12 0 48 38 41 45 -2 3 -15 -6 -28
-20z"/>
<path d="M271 459 c-17 -10 -31 -23 -31 -29 0 -5 -6 -10 -14 -10 -7 0 -34 -25
-59 -55 -37 -45 -46 -64 -52 -110 -7 -56 -6 -57 32 -91 30 -26 46 -34 73 -32
19 1 48 -4 63 -12 23 -11 37 -11 71 -2 47 12 106 1 139 -26 9 -9 20 -13 23
-10 9 10 -38 48 -59 48 -27 0 -57 18 -57 35 0 22 -14 18 -25 -8 -7 -16 -20
-23 -48 -25 -21 -2 -45 2 -53 9 -18 15 -18 53 1 69 8 7 15 22 15 35 0 27 29
55 59 55 14 0 25 9 31 26 8 19 16 25 30 21 11 -3 20 -1 20 4 0 5 -4 10 -10 10
-5 1 -15 2 -21 3 -7 0 -15 10 -19 20 -4 14 -9 16 -14 8 -4 -7 -4 -17 -1 -22
12 -20 -5 -46 -38 -58 -25 -9 -39 -24 -60 -69 -15 -32 -27 -66 -27 -75 0 -32
-52 -22 -90 17 -30 31 -33 38 -22 55 6 11 12 33 12 49 0 19 8 35 21 45 12 8
27 25 33 38 23 46 72 30 59 -20 -5 -22 -5 -22 26 -5 34 20 41 34 12 26 -27 -7
-38 43 -15 68 13 15 29 18 83 16 65 -3 69 -5 56 -39 -4 -10 -3 -18 3 -18 6 0
13 9 17 19 3 10 15 21 26 24 41 11 97 -27 85 -58 -3 -10 1 -15 12 -15 24 0 42
-19 42 -45 0 -12 5 -26 11 -32 9 -9 8 -18 -5 -37 -9 -15 -21 -26 -26 -26 -6 0
-10 -5 -10 -11 0 -6 7 -9 15 -5 26 9 17 -21 -15 -51 -34 -31 -37 -49 -14 -78
15 -19 16 -18 9 13 -6 28 -3 36 18 53 18 13 29 36 37 74 17 80 6 117 -54 179
-55 58 -64 61 -203 70 -47 3 -68 0 -92 -15z"/>
<path d="M474 395 c-4 -8 -3 -23 1 -32 7 -16 8 -16 13 2 2 11 9 26 14 33 8 9
6 12 -6 12 -9 0 -19 -7 -22 -15z"/>
<path d="M517 307 c-4 -10 -14 -17 -24 -18 -10 0 -5 -5 11 -10 36 -10 39 -8
28 21 -7 20 -10 21 -15 7z"/>
<path d="M180 279 c-13 -24 2 -49 29 -49 14 1 13 3 -2 15 -13 9 -17 20 -12 34
8 27 -1 27 -15 0z"/>
<path d="M374 258 c-5 -8 0 -9 14 -6 12 4 25 2 28 -3 3 -5 10 -9 16 -9 7 0 6
6 -2 15 -15 18 -46 20 -56 3z"/>
<path d="M326 209 c3 -6 0 -15 -7 -20 -7 -4 -10 -11 -6 -15 11 -11 41 22 33
35 -4 6 -12 11 -17 11 -6 0 -7 -5 -3 -11z"/>
<path d="M472 183 c6 -7 16 -13 23 -13 7 0 17 6 23 13 9 10 4 13 -23 13 -27 0
-32 -3 -23 -13z"/>
</g>
</svg>
