<?xml version="1.0" standalone="no"?>
<!DOCTYPE svg PUBLIC "-//W3C//DTD SVG 20010904//EN"
 "http://www.w3.org/TR/2001/REC-SVG-20010904/DTD/svg10.dtd">
<svg version="1.0" xmlns="http://www.w3.org/2000/svg"
 width="72.000000pt" height="63.000000pt" viewBox="0 0 72.000000 63.000000"
 preserveAspectRatio="xMidYMid meet">

<g transform="translate(0.000000,63.000000) scale(0.100000,-0.100000)"
fill="#000000" stroke="none">
<path d="M233 502 c-7 -4 -20 -25 -28 -46 -29 -69 -1 -147 91 -253 80 -91 160
-114 231 -68 31 21 29 33 -12 80 l-34 40 -31 -18 c-55 -30 -74 -23 -124 44
-25 34 -46 64 -46 68 0 4 11 18 25 31 34 32 31 53 -12 94 -41 39 -42 39 -60
28z"/>
</g>
</svg>
