<?xml version="1.0" standalone="no"?>
<!DOCTYPE svg PUBLIC "-//W3C//DTD SVG 20010904//EN"
 "http://www.w3.org/TR/2001/REC-SVG-20010904/DTD/svg10.dtd">
<svg version="1.0" xmlns="http://www.w3.org/2000/svg"
 width="68.000000pt" height="64.000000pt" viewBox="0 0 68.000000 64.000000"
 preserveAspectRatio="xMidYMid meet">

<g transform="translate(0.000000,64.000000) scale(0.100000,-0.100000)"
fill="#000000" stroke="none">
<path d="M226 467 c-65 -34 -119 -66 -119 -72 0 -5 56 -40 124 -77 l125 -68
127 66 c70 36 127 71 127 77 0 13 -230 137 -252 137 -7 0 -66 -28 -132 -63z
m357 -77 c-4 -5 -56 -34 -115 -65 l-106 -56 -116 58 c-64 32 -115 61 -113 66
1 5 52 34 112 66 l110 58 118 -60 c65 -33 115 -63 110 -67z"/>
<path d="M130 309 c-42 -26 -44 -24 115 -105 l115 -59 125 65 c69 36 125 71
125 77 0 7 -13 19 -30 28 -34 18 -41 5 -9 -17 20 -13 15 -17 -96 -74 l-117
-61 -111 58 c-61 32 -113 62 -115 68 -2 5 6 12 17 16 12 3 21 11 21 16 0 12 0
12 -40 -12z"/>
<path d="M128 204 c-16 -8 -28 -19 -28 -24 0 -6 59 -39 131 -75 l130 -66 122
64 c67 35 123 70 125 79 2 9 -9 20 -28 28 -38 16 -53 5 -16 -11 14 -7 26 -15
26 -18 0 -3 -53 -33 -117 -65 l-117 -60 -113 60 c-62 32 -113 62 -113 65 0 4
10 14 23 22 28 20 11 21 -25 1z"/>
</g>
</svg>
