<?xml version="1.0" standalone="no"?>
<!DOCTYPE svg PUBLIC "-//W3C//DTD SVG 20010904//EN"
 "http://www.w3.org/TR/2001/REC-SVG-20010904/DTD/svg10.dtd">
<svg version="1.0" xmlns="http://www.w3.org/2000/svg"
 width="93.000000pt" height="101.000000pt" viewBox="0 0 93.000000 101.000000"
 preserveAspectRatio="xMidYMid meet">

<g transform="translate(0.000000,101.000000) scale(0.100000,-0.100000)"
fill="#000000" stroke="none">
<path d="M365 768 c-22 -11 -55 -34 -74 -52 -38 -35 -91 -138 -91 -176 0 -29
-8 -41 -35 -56 -29 -16 -34 -84 -7 -91 16 -4 22 -17 27 -62 9 -80 51 -161 95
-184 30 -15 58 -17 207 -15 164 3 172 4 196 26 34 32 67 113 74 178 4 40 10
54 24 57 15 4 19 14 19 46 0 34 -4 42 -24 47 -19 4 -26 16 -36 62 -15 71 -31
102 -78 154 -75 84 -207 113 -297 66z m190 -12 c59 -25 101 -64 133 -124 37
-70 52 -142 30 -142 -10 0 -21 22 -33 65 -56 207 -289 250 -397 74 -16 -25
-32 -65 -36 -89 -5 -32 -13 -46 -26 -48 -16 -4 -18 0 -12 35 18 97 84 188 161
224 48 22 132 25 180 5z m-9 -52 c50 -24 101 -86 118 -145 9 -29 16 -56 16
-61 0 -4 -94 -8 -209 -8 l-208 0 8 46 c26 138 162 221 275 168z m234 -264 l0
-30 -310 0 -310 0 0 30 0 30 310 0 310 0 0 -30z m-393 -162 c62 -62 113 -116
113 -120 0 -5 -26 -8 -58 -8 l-58 0 -92 94 c-69 70 -92 100 -92 120 0 23 4 26
37 26 35 0 47 -9 150 -112z m151 -1 c62 -62 110 -116 106 -120 -4 -4 -28 -7
-54 -7 -46 0 -47 1 -161 115 -62 64 -116 118 -118 120 -2 3 22 5 55 5 l59 0
113 -113z m115 44 l68 -69 -15 -31 c-9 -16 -21 -33 -27 -37 -11 -6 -209 182
-209 198 0 5 26 8 58 8 l58 0 67 -69z m85 19 c-3 -28 -8 -53 -12 -57 -7 -7
-106 86 -106 99 0 4 28 8 61 8 l62 0 -5 -50z m-448 -120 c33 -33 60 -62 60
-65 0 -3 -12 -5 -26 -5 -17 0 -38 12 -58 33 -32 35 -61 97 -45 97 5 0 36 -27
69 -60z"/>
</g>
</svg>
