<?xml version="1.0" standalone="no"?>
<!DOCTYPE svg PUBLIC "-//W3C//DTD SVG 20010904//EN"
 "http://www.w3.org/TR/2001/REC-SVG-20010904/DTD/svg10.dtd">
<svg version="1.0" xmlns="http://www.w3.org/2000/svg"
 width="313.000000pt" height="306.000000pt" viewBox="0 0 313.000000 306.000000"
 preserveAspectRatio="xMidYMid meet">

<g transform="translate(0.000000,306.000000) scale(0.100000,-0.100000)"
fill="#000000" stroke="none">
<path d="M1367 2785 c-387 -73 -700 -340 -824 -700 -36 -104 -52 -193 -60
-321 l-6 -114 -29 0 c-43 0 -91 -23 -121 -59 -53 -63 -28 -179 46 -214 42 -20
252 -33 779 -49 590 -17 1538 11 1608 47 50 26 73 62 77 117 3 41 -1 61 -16
85 -33 53 -66 68 -143 67 l-68 -1 0 102 c0 409 -245 785 -625 961 -174 80
-435 114 -618 79z m443 -94 c41 -12 120 -44 175 -71 341 -168 555 -517 555
-906 l0 -71 -37 -6 c-20 -4 -40 -4 -45 -1 -4 3 -8 50 -8 105 0 479 -373 869
-855 896 -363 20 -701 -181 -861 -512 -57 -117 -83 -223 -91 -367 l-6 -118
-40 0 -40 0 5 128 c6 150 31 258 88 379 135 289 383 486 701 558 98 22 361 14
459 -14z m-25 -161 c361 -113 595 -435 595 -820 l0 -78 -117 -8 c-156 -11
-1185 -11 -1385 0 l-158 8 0 93 c0 297 140 553 389 713 191 122 460 159 676
92z m-896 -981 c310 -14 1338 -7 1630 11 l204 13 24 -28 c26 -30 25 -66 -2
-94 -40 -41 -1203 -66 -1841 -40 -449 18 -494 22 -516 48 -24 31 -23 66 3 92
21 21 28 22 133 16 61 -4 225 -12 365 -18z"/>
<path d="M445 1262 c-13 -42 41 -328 91 -480 61 -186 157 -365 240 -447 22
-21 64 -50 94 -64 l55 -26 625 0 625 0 55 28 c69 36 110 74 166 159 123 184
232 515 251 760 5 68 4 78 -12 84 -29 11 -49 -10 -58 -59 -9 -45 -10 -46 -50
-51 -23 -3 -93 -7 -156 -10 l-113 -5 5 38 c5 44 -7 71 -31 71 -28 0 -42 -21
-42 -61 0 -21 -3 -40 -7 -42 -5 -3 -65 -8 -135 -11 l-127 -7 -3 53 c-3 47 -6
53 -27 56 -30 5 -41 -12 -41 -65 l0 -43 -130 0 -130 0 0 36 c0 44 -15 74 -38
74 -29 0 -42 -21 -42 -67 l0 -43 -130 0 -130 0 0 36 c0 44 -15 74 -38 74 -29
0 -42 -21 -42 -68 l0 -45 -82 6 c-46 4 -104 7 -130 7 l-48 0 0 36 c0 48 -16
74 -44 74 -28 0 -36 -16 -36 -70 l0 -38 -102 4 c-57 3 -127 7 -155 10 l-53 5
0 43 c0 23 -5 47 -12 54 -18 18 -56 15 -63 -6z m393 -187 c4 -4 23 -207 20
-210 -2 -2 -64 0 -138 4 l-135 6 -17 70 c-9 39 -20 87 -23 108 l-7 38 149 -7
c81 -4 149 -8 151 -9z m1718 -2 c-2 -10 -12 -55 -21 -99 -10 -45 -20 -86 -24
-91 -3 -6 -66 -13 -138 -15 l-133 -6 1 47 c1 25 4 73 8 106 l6 60 95 6 c199
11 212 11 206 -8z m-1376 -103 c0 -55 0 -103 0 -107 0 -10 -232 -4 -241 6 -4
3 -10 50 -13 104 l-7 97 130 0 131 0 0 -100z m228 90 l102 0 0 -105 0 -105
-124 0 -123 0 -6 102 c-3 57 -3 106 0 111 3 5 15 6 27 3 11 -3 67 -6 124 -6z
m430 -97 l-3 -108 -122 -3 -123 -3 0 105 0 105 113 4 c61 1 118 4 125 5 10 2
12 -22 10 -105z m337 70 c-2 -21 -7 -68 -10 -104 l-6 -66 -121 -7 c-67 -3
-123 -4 -126 -1 -2 2 -1 52 3 110 l7 105 129 0 129 0 -5 -37z m-1313 -252 c3
-3 10 -52 13 -109 l8 -103 -84 6 c-46 4 -89 8 -95 10 -10 3 -69 132 -88 192
l-7 22 123 -6 c68 -3 126 -8 130 -12z m1618 6 c0 -15 -38 -113 -65 -169 -18
-36 -21 -38 -65 -38 -26 0 -68 -3 -94 -6 l-48 -7 6 44 c3 24 8 74 11 111 l7
67 96 4 c53 1 109 4 125 5 17 1 27 -3 27 -11z m-1287 -109 c3 -57 3 -106 -1
-109 -4 -4 -57 -4 -119 -1 l-112 5 -6 66 c-3 36 -8 83 -10 104 l-5 37 123 0
124 0 6 -102z m265 92 l52 0 0 -105 0 -105 -119 0 -120 0 -3 106 c-2 58 -1
108 2 111 3 3 34 2 70 -1 36 -3 89 -6 118 -6z m372 -54 c0 -35 -3 -84 -6 -110
l-7 -46 -113 0 -114 0 0 105 0 104 73 4 c39 1 93 4 120 5 l47 2 0 -64z m315
-38 c-4 -57 -8 -104 -8 -104 -1 -1 -55 -4 -119 -7 l-118 -5 0 71 c0 40 3 89 6
110 l7 37 120 0 120 0 -8 -102z m-1251 -224 c3 -26 6 -62 6 -81 l0 -34 -31 18
c-30 17 -119 119 -119 136 0 4 31 7 69 7 l68 0 7 -46z m1456 43 c0 -2 -18 -27
-39 -56 -35 -47 -94 -101 -111 -101 -6 0 -2 126 5 148 3 8 27 12 75 12 38 0
70 -1 70 -3z m-1150 -39 c0 -18 3 -57 6 -85 l7 -53 -115 0 -115 0 -7 46 c-3
26 -6 64 -6 85 l0 39 115 0 115 0 0 -32z m308 -55 l3 -83 -116 0 -115 0 0 85
0 86 113 -3 112 -3 3 -82z m312 40 c0 -27 -3 -65 -6 -85 l-7 -38 -108 0 -109
0 0 78 c0 43 3 82 7 85 3 4 55 7 115 7 l108 0 0 -47z m306 1 c-3 -26 -6 -64
-6 -85 l0 -39 -115 0 -115 0 0 78 c0 43 3 82 7 85 3 4 58 7 121 7 l115 0 -7
-46z"/>
</g>
</svg>
